<?xml version="1.0" encoding="utf-8"?>
<!-- Generator: Adobe Illustrator 25.4.1, SVG Export Plug-In . SVG Version: 6.00 Build 0)  -->
<svg version="1.1" id="图层_1" xmlns="http://www.w3.org/2000/svg" xmlns:xlink="http://www.w3.org/1999/xlink" x="0px" y="0px"
	 viewBox="0 0 2500 686" style="enable-background:new 0 0 2500 686;" xml:space="preserve">
<style type="text/css">
	.st0{fill:#FFFFFF;}
</style>
<path class="st0" d="M447.5,115.3c0,0-12.4-13.7-28.7-13.7c0,0-35.7,0-60,77.2c0,0-20.7,67.5-20.7,167.7c0,0,0,94.4,19.4,161
	c0,0,19.4,67.5,47.6,67.5c0,0,19.9,0,36.6-37.1c0,0,16.8-37.1,23.8-97.5l52.9-13.2c0,0-13.7,112.5-56,185.3c0,0-43.7,73.2-98.8,73.2
	c0,0-66.2,0-113-99.3c0,0-46.8-99.3-46.8-240c0,0,0-140.7,46.8-240.9c0,0,46.8-99.7,113-99.7c0,0,66.2,0,113.4,101.5L447.5,115.3"/>
<path class="st0" d="M633.7,250.8c0,0-91.3,75.4-236.9,112.1c0,0-146,36.2-262.1,12.4c0,0-116-24.7-133.2-95.7
	c0,0-14.6-59.1,49.4-124.4c0,0,63.1-64.9,176.5-108.1l7.5,29.1c0,0-66.2,28.2-102.8,64c0,0-37.5,37.5-29.1,69.7c0,0,11,41,88.7,53.4
	c0,0,77.2,11.9,177.4-12.8c0,0,99.3-24.7,162.8-71.9c0,0,62.7-47.7,52.1-89.1c0,0-8.8-35.7-72.4-51.2l-9.7-37.9
	c0,0,82.5,3.1,137.2,30.4c0,0,56,27.4,67.5,73.7C706.5,104.3,724.6,174.9,633.7,250.8 M1156.1,91.5v0.9l3.5,1.3l4.4-1.3l2.2-1.3
	l4.4,0.4c0,0,5.3,1.3,9.7,0h1.3l-22.1-2.6L1156.1,91.5"/>
<path class="st0" d="M1018,15.6c-1.3,1.3-3.1,1.8-3.1,1.8l5.7,13.2h-4l4,12.8c2.6,14.6,2.6,43.2,2.6,43.2l-1.8,7.5l-2.2,7.9
	l1.3,14.6c-0.4,5.7-7.1,12.4-7.1,12.4v7.1c-25.6,9.3-29.1,14.1-29.1,14.1l-13.7,4c-6.2,4-19,8.8-19,8.8c-8.4,8.4-17.2,9.7-17.2,9.7
	l-1.3,0.9h-1.3v0.4h-3.5c4.9-9.7,0-19.9,0-19.9l-3.1-5.3l-3.5-13.2c-3.1-10.6-5.3-11.5-5.3-11.5l-4,6.2l-3.1,7.9h-2.6l-5.7,14.6
	l-5.3,13.2l-7.1,19.4c0.4,2.2-7.9,19.4-7.9,19.4l-3.5,3.5c0,12.4-5.3,15.9-5.3,15.9l-3.5,8.8c-2.6,6.6-3.1,5.7-3.1,5.7
	c0.4,3.5-2.2,22.1-2.2,22.1c-1.3,18.5,4.9,22.1,4.9,22.1c2.6,4,1.3,5.3,1.3,5.3l6.6,13.2l2.2-0.4l2.6,4.4
	c4.4,10.1,13.7,7.5,13.7,7.5l16.8-4.9l3.5,15c1.8,9.7,5.3,12.4,5.3,12.4l12.8,2.6l13.2,1.3l12.8-5.7l28.7-6.6
	c18.5-4,27.8-8.8,27.8-8.8c7.5,14.1,6.2,25.6,6.2,25.6l-1.3,22.9l2.6,9.7l1.8,9.3l0.9,42.8l4.4,13.2l-1.8,5.3V463l4.4,13.2l1.3,15
	h2.6l-1.3-13.7l4.9,0.9l0.9,6.6l1.3-0.4l-0.9-8.4c-4.9-1.8-4.9-10.6-4.9-10.6c0-7.9,3.5-13.2,3.5-13.2c2.6,0.9,6.6,15.4,6.6,15.4
	c3.5,11,4,18.1,4,18.1h9.3v4l-2.6-2.2c-4.4,2.6-5.3,16.8-5.3,16.8c-0.4,14.1,2.2,14.6,2.2,14.6c1.3,0,8.4-5.3,8.4-5.3l-1.8,2.6v1.3
	h2.6l1.3,7.5c3.1,0,3.1-18.1,3.1-18.1h1.8l3.1,2.6l1.3-1.3v-17.2l3.5,3.1l4.4-4l2.6-5.7c0.9-4-1.3-15.4-1.3-15.4
	c3.5-17.6,4-26.9,4-26.9v-9.7l12.8-28.7c3.5-11,4-28.7,4-28.7l1.3-29.6l5.3-7.5c4.9-4.4,5.3-7.1,5.3-7.1l10.1-28.7
	c7.9-20.7,13.2-22.9,13.2-22.9l25.6-5.7c16.8-5.3,15.4-14.1,15.4-14.1c8.4,0,11.9-36.6,11.9-36.6l7.1-36.2l6.2-11.9l2.6-27.8
	l4.9-27.4c1.3-12.8-6.2-19-6.2-19c-4.9-4.4-18.5-7.9-18.5-7.9l-1.3,0.9c3.1,1.8,9.7,4,9.7,4c6.2,3.1,7.5,7.9,7.5,7.9
	c1.8,7.1-2.6,18.5-2.6,18.5c-4,10.1-10.6,15.9-10.6,15.9l0.4,4.9c-1.8,6.2-11.9,18.1-11.9,18.1l-14.1,19.4l-12.4,7.9
	c-16.8,0.4-22.1,5.7-22.1,5.7l-2.2-1.8c-2.6-4-2.6-24.3-2.6-24.3l-1.8-15.9c2.6-4,2.6-6.6,2.6-6.6v-8.8c4.4-5.3,30.4-15,30.4-15
	c23.4-9.7,26-19,26-19l1.3,1.3c-0.4,4,3.5,4.9,3.5,4.9c0-6.6,4.4-6.6,4.4-6.6l9.3,1.8v-1.3l-15-6.6c0,3.5-2.6,3.5-2.6,3.5l-5.7-0.9
	l-0.4,2.6l2.2,1.3l-3.1,4.9h-1.3c0-2.2-8.4-2.2-8.4-2.2l2.6-9.7c-7.5-3.5-7.9,3.1-7.9,3.1h-0.9l-1.3-2.6h-1.3l-0.4,2.2h-5.3l-3.5,4
	l-4-1.3l2.6-2.6l-2.6-5.3c5.3,0,7.9-6.2,7.9-6.2l-32.6,2.2c0,4.4,9.3,3.1,9.3,3.1c10.1-1.3,11.5,2.2,11.5,2.2l-10.1-0.9l-9.3,1.3
	l-1.3,4l-2.6-1.8l-2.6-2.2l-6.6-2.6c-4,2.6-6.2,2.2-6.2,2.2l-4.4-2.6l-4.4-4.4c-5.3-4-28.7-43.7-28.7-43.7
	C1048,16.9,1018,15.6,1018,15.6L1018,15.6z M1013.6,177.5l5.3,21.2l3.1,14.1c2.6,8.8,1.3,14.6,1.3,14.6l-8.4,12.4l-10.1,13.2
	c-11.9,7.5-20.7,10.1-20.7,10.1l-22.5,3.1c-11,1.3-23.4,12.8-23.4,12.8c-12.4,10.6-16.8,10.1-16.8,10.1c-2.2,1.3-4.9,1.8-4.9,1.8
	c-2.6-6.6,2.6-10.6,2.6-10.6c-1.8-2.6,1.3-10.1,1.3-10.1l6.6-7.9l4.9-9.3l2.6-11.5c4.9-3.1,4-6.6,4-6.6l22.9-26.5l27.8-12.4
	C1009.1,187.7,1013.6,177.5,1013.6,177.5L1013.6,177.5z M1464.9,88.9l17.2-6.6l17.6-4.9l15.9-1.8l6.6-2.6l18.1-0.9l18.1,0.9l7.1,0.4
	l7.5,2.6l5.3,7.9l6.2,11.5c0,0-3.5,17.2,0,20.7c0,0-2.6,5.3-4,39.3l-3.5,36.6l-2.6,26l2.2,36.6c0,0,0,7.1-3.5,19c0,0,4,18.5,0,22.5
	c0,0,8.8,55.6,7.5,58.7l-4.9,11.9l-4,11.5l-0.4,6.6l1.8,2.2l-1.3,7.9l0.9,7.5c0,0-0.9,5.7-3.5,5.7l-6.6-4.4l-5.3-6.2v-0.4
	c0,0-11.5-9.7-16.8-7.1c0,0,0,16.3,10.6,32.7l2.2,1.3c0,0,1.3,7.5,13.7,26.9l1.3,2.6l10.1,30c0,0,7.5,10.6,36.6,23.8l2.6-0.4v-2.2
	c0,0,2.6,0,8.8-7.1c0,0,7.9-10.1,8.8-21.6v-22.5l2.6-15.9v-16.3l-4-14.6c0,0-2.2-11.5,2.6-13.2c0,0,0-23.4-2.2-24.7
	c0,0,4-18.1,1.3-38.8l0.9-16.3v-16.8l-2.6-36.6L1633,223l-1.3-33.5l-4-31.8c0,0,1.3-9.3,3.5-12.8c0,0-1.3-5.3,0.4-22.1
	c0,0-5.7-0.4-2.6-21.2l4-25.6c0,0-1.3-6.6-12.8-21.2l-16.3-18.1c0,0-10.1-5.3-15.4-4l-35.3,5.3c0,0-24.7,2.6-31.3,10.1l-8.8-0.9
	l-9.3,2.2l-1.3,1.3l-16.8,1.8l-13.2,2.6h-4.9l-17.2,6.2l-15.4,7.5l-15.4,5.7c0,0-13.7,11.5-20.7,10.1c0,0-30,7.5-41.9,14.6
	c0,0,0,0.9,7.9,2.6c0,0,7.9,2.2,8.8,6.6l8.8,2.6c0,0,21.2,3.5,33.1-4.4c0,0,2.6,1.3,17.6-5.3c0,0,3.1-4,10.6-4l9.3-5.3L1464.9,88.9"
	/>
<path class="st0" d="M1078,496.5l-0.4,18.1c0,0,3.1,0,3.1-8.4C1080.6,506.2,1081.5,498.3,1078,496.5 M1039.1,506.2l2.2,7.5h0.9
	l1.8-4v-7.9h-1.3l-0.4,0.4l1.3-4.4l-6.2-3.5C1037.4,494.3,1036.1,498.3,1039.1,506.2 M1048,519l0.9-1.3c0,0,1.3-13.2-1.3-15.9
	c0,0-3.5,3.1-0.9,17.2L1048,519 M1038.7,549.9v49.4h41.5v-49.4h35.7v118.7h-35.7v-50.7h-41.5v50.7h-36.2V549.9H1038.7 M917.4,577.7
	c0,0-10.6,10.6-10.6,31.3v1.3c0,0,0,21.6,9.7,32.2c0,0,11.5,10.1,28.2,10.1l20.7-2.2l13.2-3.1v17.6l-13.2,4l-22.9,1.3
	c0,0-32.6,0-53.4-14.6c0,0-19.9-14.6-19.9-43.2v-5.3c0,0,0-26.9,20.7-42.8c0,0,20.7-16.8,52.1-16.8l22.5,1.3l14.1,3.5v18.5
	l-12.8-3.1l-18.1-1.3C947.8,566.7,928.4,566.7,917.4,577.7 M1539.5,238.9c0,0,0.9,7.5-7.9,17.2l-2.6,3.5l-0.4,1.3l-2.6,5.3l-1.3,6.2
	l-4,2.6l-1.3,2.6l1.3,0.4c0,0,4.4,1.3,11.9-2.6l7.1-1.8l8.4-0.9l5.7-0.4l3.5-0.9c0,0,7.9,2.6,14.1-6.6l1.3-11.9l-1.3-6.6l-2.2-4.9
	l-2.6-1.3l-4-1.8l-9.3-0.9l-1.3-1.3l-8.8-4l-6.6-2.6L1539.5,238.9"/>
<path class="st0" d="M1509,107l-11.5,3.1l-12.8,2.6l-24.3,5.3l-12.4,7.1l-10.6,2.6c0,0-1.8,1.3-4.4,1.8l-4.9,0.9l-4.9,1.3l-17.6,7.9
	l-8.8,5.3l-6.2,1.3l-1.8,1.3l-0.9,0.9l-3.1,4l-6.2,3.1l-7.5,5.3c0,0-13.7,0-11,10.1h2.6c0,0,0,1.8,16.8,8.8l0.4,7.9
	c0,0,1.3,5.7,5.3,8.4h17.6l5.7,0.9h9.3c0,0,2.6,0,2.6,1.8l1.3,8.8l0.9,6.6l-0.9,10.1l-3.1,6.6l-7.5,1.3l-5.7,3.5l-16.8,6.6l-6.6,5.3
	l-10.1,6.6l-5.3,5.3l0.4,2.2v1.8l-5.3,4.9l0.9,5.3l1.8,1.3l6.2,5.7l8.8,1.3l4,7.1l5.3,5.3l6.6,1.3l5.3-0.9l-0.9,4c0,0-1.8,4,0,4
	l-2.6,8.8l-3.1,6.2l-1.3,3.1l-7.9,6.2l-4,5.3l-4,7.1v3.1l-3.1,6.6l-2.6,4v5.3l3.5,9.7l4,6.2c0,0,2.6,3.5,3.5,2.6c0,0,0,0.9,4.4,2.6
	c0,0,9.3,1.3,14.6,0l18.1-4l10.1-5.3l18.1-6.2l4-3.1c0,0,2.6,0,13.2-7.9c0,0,2.2,1.3,7.5-4c0,0,0,0.4,7.1-3.5l6.2-1.8
	c0,0,3.5-1.3,6.6-3.5l8.8-2.6l11.9-7.9l8.8-7.5c0,0,4.4-2.6,5.7-7.9l2.2-4l1.3-2.2h-5.3c0,0-3.5,0-1.3-5.3l3.1-5.7l-10.6-0.9
	c0,0-6.6,0-6.6-2.6l-18.5,1.3l1.8-7.1l0.9-5.7l2.6-7.1c0,0-2.2,0-2.2-4l2.6-2.2l4.9-0.4l10.6-15l11.5-11.9l0.4-3.1l2.6-5.3v-5.7
	l-1.3-6.6l-7.1-7.1l-12.8-8.8l-5.3-2.6l-2.2-2.2l-4.4-3.1l1.3-2.2c0,0,0-5.7,3.1-12.4l13.2-14.1c0,0,3.5,0,9.7-12.8l4.4-5.7l1.3-5.7
	l-0.4-5.7l1.3-4l-0.9-6.2l-6.6-11.5l-3.1-4.4C1517.9,112.2,1517.9,107,1509,107 M1399.6,408.3l-10.1,2.6H1374l-7.1,1.3l-7.9-0.4
	l8.4,18.5c0,0,8.4,15.4,11,15.9l7.9,2.2l12.4-3.5c0,0,8.8-1.8,10.1-4.4h2.6c0,0,11.5-2.6,14.1-6.6l14.1-3.5l13.2-6.2l6.2-1.8
	l9.7-4.9l10.6-6.6l27.4-19.4c0,0,11-7.1,36.2-19l6.2-5.7v-1.3h-4c0,0-3.5,2.6-17.6,6.2l-13.2,5.3l-4,0.9l-11.9,4.4l-13.7,2.2
	l-18.5,7.9l-9.3,1.8l-9.3,4.4l-5.3,0.4l-12.8,2.6c0,0-10.6,5.3-13.2,6.2l-6.2-1.3L1399.6,408.3 M1334.3,125l-4,11.9
	c0,0-2.2,6.6-1.3,14.1l1.3,5.3v18.5l1.3,11.5l-2.2,8.4l-0.4,14.1l-2.6,6.2l-4,16.8l1.3,3.1V249l-2.2,7.9v6.2l-1.3,12.4l-2.2,8.8
	l-1.8,27.8h-0.9l-1.3,8.4l-3.1,7.1c0,0-1.3,10.1,1.3,16.3l0.4,8.4l0.9,11.5c0,0,0.4,6.2-2.2,9.3l-1.3,10.6c0,0-1.3,24.3,12.8,36.2
	c0,0,4.9,4.4,8.8,3.1l3.1-4c0,0,5.3-7.1,5.3-19.9l-1.8-21.2l-1.3-6.2l2.6-19.9c0,0,0-8.8,1.3-12.4c0,0-6.6-4.4-2.2-25.6l0.9-12.4
	l0.4-7.9c0,0,1.3-6.6,2.2-6.6l1.3-6.6l1.3-4.9l6.6-31.3l6.2-18.1V223l-2.6-4.9v-7.1l1.8-4.9l2.2-10.6h-0.9l0.9-7.9l-0.9-7.9
	c0,0-3.1,0-3.1-21.6l-4-12.8l-3.5-4l-4-7.9l-4-12.4l-3.5-3.1L1334.3,125 M1174.2,103l0.4-2.6l-1.8-3.5v5.3L1174.2,103 M1181.7,99
	l-6.2-2.2V99H1181.7 M1346.2,549.9v118.7h-15.4l-79.9-74.6v74.6h-26V549.9h19.4l76.8,70.6v-70.6H1346.2 M1189.6,549.9v118.7h-36.2
	V549.9H1189.6 M1414.2,549.9l-53.8,118.7h29.1l11.9-28.2h53.4l11.5,28.2h37.5l-56-118.7H1414.2z M1427.4,579l20.3,44.1h-38.8
	L1427.4,579z M1559.8,549.9h106.8v17.2h-34.9v101.5h-36.2V567.1h-35.7V549.9 M2339.4,80.9l4.9-6.2l4.9,0.9l3.1-0.9l14.6-1.3
	c0,0,0.9,2.6-13.2,2.6l-7.9,3.5l4.9,2.6l15,1.8c0,0,4.9,0.9,11.5,6.2l8.8,9.3l-6.6,7.5l-5.7,2.6l-5.7,0.4l-22.9,4.9l-17.6,1.3
	l-14.1,4l-29.6,3.5l-12.4,4l-7.5,4.4h-1.3l-1.3-2.6l-3.5,3.5c0,0-1.3,2.6-1.3,6.6c0,0,0,5.7,3.5,7.9l7.9,2.2c0,0,5.3,2.6,7.9,2.6
	l16.8-4.9l18.1-3.5l16.8-4.4l27.4-4l86.5-2.2l22.1-3.1l6.6,1.3l6.2,0.4c0,0,7.9-4,10.6-2.6l0.9-4.4v-8.8l5.3-3.5
	c0,0,10.6-7.1,6.6-12.4l-14.1-4l-15.9,0.4h-22.9c0,0-8.4,0-7.9-4.4l0.9-6.2c0,0-2.6-7.9-1.3-10.6l-0.9-13.7l-8.8-6.6l-5.3-0.4
	L2417,50l-24.7-10.6l-9.3-2.6l-5.3,1.3l-8.4,14.1l-0.4,1.3l-4.9-1.3l-5.7,4l0.4,0.4l-3.1,2.2l-10.1,7.5c0,0-6.2,5.7-1.3,4.4h1.3
	l-2.6,2.2l-12.8,4.4l-1.3,4l3.5,1.3L2339.4,80.9 M1872.6,75.6l-1.3,14.6c0,0-7.5,11.9-9.3,18.1c0,0-6.2,47.2-10.1,52.1l-7.5,6.6
	l-8.4,4l-9.3,6.2l-22.9,16.3l-0.4,0.9l9.3,1.3l5.3,5.7l10.6-3.1l11.5-1.3l0.4,8.8l2.2,3.1l-7.5,11.9c0,0,0,10.1-35.7,34
	c0,0-1.3-4,0-17.6l2.6-18.1l-0.9-7.5l-5.3-9.3c0,0-6.2-7.9-6.6-11.5c0,0-7.5-1.3-7.9-7.9l-4-7.9c0,0-1.3,0-3.5,7.9l-4,9.3l-1.3,4.9
	l-1.3,0.4c0,0,0,4-5.3,11l-5.3,9.3c0,0-1.3,5.7,0,31.8l-2.2,26l-4,25.6l-5.3,17.2c0,0-4,8.8,0,18.5c0,0,2.2,4,10.6,8.8
	c0,0,8.4,4,12.8,4.9l5.3,5.7c0,0,2.6,6.6,4.9,7.5l13.2,9.3l12.8,2.2l10.6,4l7.5,30.4c0,0,6.6,26,15,28.7h0.9c0,0,0.4,2.6,5.3,6.2
	l6.6,4c0,0,11.9,7.9,21.2,10.6l23.4,3.5l20.3,0.4l23.4,2.2c0,0,19.9-2.2,22.1-6.2l20.3-2.6c0,0,22.1-5.3,20.7-7.5l2.6-0.4l39.7-10.1
	l9.7-4h-1.8l1.8-4h1.3l-0.4-2.6h1.3l1.3,1.3l0.4-1.3l-0.4-1.3l1.8-2.6l-1.8,0.4l3.1-5.7l4.9-4.9h0.4v2.6l3.5-4.4h0.9v0.4l-1.8,1.3
	l0.9,1.3c0,0-0.9,1.3,0.9,0.9l0.4-2.6l2.2-1.3l0.4,0.4l2.2-2.6l1.3-0.4v-4l-2.6-1.3l-1.3,1.8v-3.1l-1.3-0.9v1.3l-1.3-0.4v-2.2
	l-1.8-1.8l3.1-2.2l-0.9-1.3l-3.5,3.5l1.3-4.4h2.2l0.9-1.3l-5.7-0.4l-1.8,1.3l-0.9-0.9l0.9-3.1l-4-0.9l2.6-1.3l-1.3-1.3v-1.3l1.8,0.9
	v-0.9l-2.6-2.6l-0.4,0.9l-2.2-2.6l-0.4-0.9l-2.6,0.9l-0.9-1.3v1.8h2.2v4h-0.9l-2.6-5.3l-1.3-0.4l-1.3,0.4l2.6-1.8h0.9l-4.9-0.9
	c0,0-2.6,0-3.1,2.2l-4.9,2.6l-7.5,5.3l-7.9,1.8l-7.9,3.5l-26,4.9l-22.1,6.6l-7.9,1.3l-42.8,4.4l-11-4c0,0-2.2,0-3.5-1.8l-1.3-4.9
	c0,0-8.8-18.1-7.5-22.5l12.4-16.3l6.6-5.7c0,0,4.4-3.5,11.9-2.6l7.5-1.3l9.3-1.3l5.7-3.5l7.5-1.3l7.5-1.8l7.1-1.8l30-4l4-3.1
	l3.5-5.3l6.2-8.8c0,0,6.6-5.3,7.1-10.6v-6.6l2.2-7.9l-6.6-15.4l-7.1-14.6l12.8-32.7l2.2-8.4c0,0,1.8-6.6,4-6.6l1.8-9.3l2.2-10.1
	c0,0,2.6-5.7,1.8-9.3l-1.3-8.4l1.3-5.7l-1.8-6.6c0,0-2.6-4-2.6-6.6l-6.6-9.7l-5.3-15c0,0-2.6-6.6-13.7-11l-1.8,1.3l-10.1-4
	c0,0-6.6-4.4-12.8-2.6l-13.7-2.2l-24.3,11.5l-26.5,14.6h-7.9l5.3-34c0,0,1.3-18.1-17.6-26.9l-10.6-5.3L1872.6,75.6L1872.6,75.6z
	 M1954.7,156.4l19.9,4.4l-0.4,2.6l4,5.3v4c0,0,0,3.5-5.3,8.8h-7.5c0,0-20.7,14.6-33.1,17.2L1922,200h-4.9c0,0-5.3,1.3-11,0
	c0,0-8.4-1.3-9.7-5.7l1.3-9.3c0,0,2.2-6.6,4-7.5c0,0,0-3.5,6.2-6.2l6.2-2.6c0,0,5.3-2.6,15-5.3l7.5-4l10.1-2.6L1954.7,156.4
	L1954.7,156.4z M1958.6,232.3l1.3,1.3c0,0,2.2,2.2,0.9,4.9l-4.4,21.2l-3.1,5.3c0,0-3.5,4.9-21.2,12.8c0,0-18.1,11.9-28.2,4.4
	l-3.5-9.3l2.2-7.1c0,0-0.9-6.2,0.9-9.7l5.7-6.6l14.6-7.9l19-6.6L1958.6,232.3z M1815.2,278.1l8.8,3.5c0,0,4,4,1.3,15.9l-5.3,16.3
	l-0.9,3.1l-4,6.2l-9.3,1.8c0,0-2.6,0-11.5,4.9c0,0-4,2.6-8.8,4.4l-3.1,3.5l-0.9-0.9l3.5-11l-1.3-6.6l1.8-6.2l0.9-6.2l5.3-14.6
	l2.2-6.6h0.4c0,0,4.9,0,11.5-4l9.3-2.6L1815.2,278.1L1815.2,278.1z M2198.2,125v4c0,0-5.3,15.9-5.3,23.4l-8.8,13.7l-1.3,4.9
	l-2.6,5.3l-7.5,15.9l-11.9,26l-6.6,7.9l-10.1,15.4l-3.1,10.1l-3.5,10.6l0.9,10.1l0.4,15.4c0,0,2.2,1.3,3.5,1.8l4.4,6.6l0.9,14.1
	l-0.9,14.6l2.2-3.1l1.8-5.3v-0.9h0.9l0.4,0.9l-1.3,2.6l0.9,1.3h1.3l2.2-4l4-12.4l7.1-7.9l4-2.6l27.4-26.5c0,0,7.9-2.6,12.8,8.4
	l1.3,10.1l2.6,19.9v25.6l-3.1,14.6l-3.1,26l-4,11.9l-5.3,30.9l-0.4,33.1c0,0,0,14.1,13.2,15.4l6.2-7.1c0,0,9.7,0.4,5.7-4.9v-5.3
	l5.3-4h4.9l6.6-10.6l2.6-20.3l4-44.1l1.3-15l2.6-15l4.9-58.7c0,0-2.2-13.2-1.3-18.5l4-9.3c0,0,1.8-4,1.8-14.6l-1.3-4.9l-4-3.5
	l-4-4.4c0,0-3.1-1.3-7.1-3.5l-12.8-5.7l-7.9,1.8l1.8-7.9l2.6-6.6l0.9-13.2l1.8-6.6c0,0,0.9-8.8-4.4-20.3l-9.3-18.5l-0.9-5.3
	l-4.4-11.5l-10.1-8.8L2198.2,125 M1843,549.9v101.5h59.6v17.2h-95.3V549.9L1843,549.9 M1719.1,567.1v32.6h47.7v18.1h-47.7v33.5h65.3
	v17.2h-101V549.9h97.1v17.2L1719.1,567.1 M1926.4,549.9h97.5v17.2h-61.3v32.6h47.2v18.1h-47.2v33.5h66.2v17.2h-102.4V549.9
	 M2091.9,577.7c0,0-11,11.5-11,31.3v1.3c0,0,0,21.6,9.7,32.2c0,0,12.4,10.1,28.2,10.1l20.7-2.2l13.2-3.1v17.6l-13.2,4l-22.9,1.3
	c0,0-33.1,0-52.5-14.6c0,0-20.7-14.6-20.7-43.2v-5.3c0,0,0-26.9,20.7-42.8c0,0,20.7-16.8,52.5-16.8l22.1,1.3l14.1,3.5v18.5
	l-11.9-3.1l-18.1-1.3C2122.8,566.7,2103.3,566.7,2091.9,577.7 M2235.3,547.7c0,0-32.6,0-49,16.8c0,0-17.6,16.8-17.6,41.9v6.6
	c0,0,0,27.4,19,42.8c0,0,17.2,14.6,47.2,14.6c0,0,30,0,47.2-14.6c0,0,19-15.4,19-42.8v-6.6c0,0,0-25.2-17.6-41.9
	C2283.4,564.5,2267.5,547.7,2235.3,547.7z M2234.8,565.4c0,0,19.4,0,23.8,9.7c0,0,5.3,11.9,5.3,32.7v3.5c0,0,0,21.2-6.6,32.6
	c0,0-6.6,10.1-22.5,10.1c0,0-18.5,0-23.8-9.7c0,0-5.7-7.9-5.7-33.1v-3.5c0,0,0-23.8,6.2-33.1
	C2211.4,574.6,2216.3,565.4,2234.8,565.4L2234.8,565.4z M2426.8,157.7h-13.2c0,0-9.3,0-13.2-2.6h-16.8l-14.1,4l-13.2,5.3
	c0,0-2.6,0.4-4,4c0,0-1.8,4.4,0.9,9.3c0,0,3.1,4,8.4,5.3l16.8,8.8l4,4l23.4,10.6l11.5,2.6h15.9l5.3,2.2c0,0,2.6,1.3,4.9,0
	c0,0,3.1-2.2,8.4-12.8l3.5-4V189l0.4-6.2l-5.7-5.3l-3.5-8.8c0,0-5.7-1.8-8.4-3.1l-5.3-5.3L2426.8,157.7 M2362.3,224.3l-26.9,4.4
	l-0.4,3.1c0,0-1.3,2.6,0,5.7l4.4,8.8l6.6,8.4l12.4,10.1c0,0,3.1,3.5,9.3,4.9l13.2,0.4l11.5,2.2c0,0,5.3,0.4,14.6,5.7l9.3-1.3h6.6
	l6.6-3.1c0,0,7.1-1.3,7.5-2.2c0,0,3.5-1.3,6.6-7.1l4-10.1v-4l0.9-3.5c0,0,0.4-2.6,4-4l4.4-2.6v-9.3c0,0,0-1.3-6.6-2.6l-8.4-0.9
	l-9.3,1.3l-25.6-5.7l-14.1-0.9L2362.3,224.3 M2300.1,335.1l4,18.1c0,0-1.8,10.6-0.4,19.9l0.4,21.2l-0.4,15.4l7.1,29.6l1.3,3.1v11
	c0,0,1.3,5.7,6.2,7.9l7.9,1.8l10.6,4.9l3.5,4.4c0,0,1.8,2.6,4.4,2.2c0,0,2.2-0.9,2.2-6.6l5.3-9.3l0.9-10.1l2.6-10.6l1.8-7.5l4-36.2
	l-1.8-5.3l-3.5-5.3l0.9-7.1v-6.6l1.3-0.9l19.9,0.9l7.5-8.4c0,0,11-10.6,18.1-13.2l3.1,4.9c0,0,2.6,7.1,0.9,18.1l-15,17.2l-9.3,9.3
	c0,0-5.7,4.9-7.1,10.6l-3.1,2.2l-0.4,4.4l-0.9,12.4c0,0,0,10.6,1.3,13.2l5.7,4l6.6,2.6l5.3,4.4l21.2,1.8l22.1-4.4l12.8,2.6l16.8-0.4
	l7.1-4l5.3-2.2l4.9-5.3v-7.1l1.3-16.3l-6.2-3.1l-1.3-0.9l-7.1-5.7l-0.9-5.3l10.1-26.9l0.4-14.6c0,0-1.8-3.5,0.9-10.6v-13.7l-7.5-8.4
	l-7.9-11.9l-9.3-7.5l-4-3.5l-10.6-2.6l-11,0.9l-5.7-2.6l-20.7,14.1l-41.5,20.3l-5.3,2.2l-5.3,1.3c0,0-5.3,0-7.5-2.2l-4.4-5.3l-4-4.4
	l-2.6-6.6l-7.9-3.5l-8.4-3.5c0,0-4-1.8-5.7-5.7l-2.2-2.6l-3.1,1.3l-2.6,16.8L2300.1,335.1 M2344.7,668.6h-24.3V549.9h26.5l60,86.5
	l61.3-86.5h23.4v118.7H2459v-67.9l-48.5,67.9H2391l-46.3-67.9L2344.7,668.6"/>
</svg>
