<?xml version="1.0" encoding="utf-8"?>
<!-- Generator: Adobe Illustrator 25.4.1, SVG Export Plug-In . SVG Version: 6.00 Build 0)  -->
<svg version="1.1" id="图层_1" xmlns="http://www.w3.org/2000/svg" xmlns:xlink="http://www.w3.org/1999/xlink" x="0px" y="0px"
	 viewBox="0 0 2500 712.7" style="enable-background:new 0 0 2500 712.7;" xml:space="preserve">
<style type="text/css">
	.st0{fill:#FFFFFF;}
</style>
<g>
	<path class="st0" d="M55.1,257.2H3.8v-52H171v52h-51.3v165.6H55.1V257.2z"/>
	<path class="st0" d="M143.2,335.7c0-42.5,14.3-89.8,90.8-89.8c89.8,0,85,71.1,85,103.4H203c0.3,24.1,10.2,35.7,28.9,35.7
		c17.3,0,24.5-8.5,25.5-20.1l62.9,0.3c-2,34.7-26.5,60.9-86,60.9C156.4,426.2,143.2,378.2,143.2,335.7z M257.4,317
		c-0.7-22.1-8.5-30.6-26.9-30.6c-17,0-26.9,7.5-27.5,30.6H257.4z"/>
	<path class="st0" d="M366.9,332.7l-58.8-83.3h70.7L405,298l26.5-48.6h70.4l-59.5,83.3l64.6,90.1h-75.5l-25.8-54.1l-27.2,54.1h-75.8
		L366.9,332.7z"/>
	<path class="st0" d="M483.2,336.4c0-42.2,16-90.4,87.4-90.4c70.4,0,86.7,48.3,86.7,90.4c0,42.8-16.3,89.8-87.4,89.8
		C498.5,426.2,483.2,378.9,483.2,336.4z M569.9,375.5c20.1,0,28.9-11.2,28.9-39.1c0-26.9-7.8-39.4-28.2-39.4
		c-20.1,0-28.9,12.2-28.9,39.4C541.6,363.9,550.8,375.5,569.9,375.5z"/>
	<path class="st0" d="M665.1,249.4h35.7l10.5,21.1c11.2-13.9,30.3-24.5,54.7-24.5c61.2,0,68.3,34,68.3,77.5v99.3h-63.6v-96.9
		c0-23.5-4.4-28.6-20.4-28.6c-15.6,0-21.4,5.8-21.4,28.6v96.9H665V249.4H665.1z"/>
	<path class="st0" d="M879.2,345.9c0-42,13.7-78.5,70.8-78.5c50.4,0,69.4,28.3,69.4,60.2h-27.1c-1.4-21.6-12.5-38.4-42.2-38.4
		c-36.2,0-43.9,25.2-43.9,56.6s7.7,56.4,43.9,56.4c30,0,40.8-15.8,42.2-38.6h27.1c0,33.8-18.7,60.7-69.4,60.7
		C892.6,424.4,879.2,388,879.2,345.9z"/>
	<path class="st0" d="M1024.2,361.3c0-32.4,12.7-63.1,61-63.1c47.8,0,61,30.7,61,63.1c0,32.9-13.2,63.1-61.2,63.1
		C1036.6,424.4,1024.2,394,1024.2,361.3z M1084.9,403.6c28.8,0,35-18.5,35-42.2c0-22.8-5.8-42.2-34.8-42.2
		c-28.6,0-34.8,19.2-34.8,42.2C1050.3,384.6,1056.6,403.6,1084.9,403.6z"/>
	<path class="st0" d="M1154.2,299.9h13.9l5.8,15.8c3.8-7.9,14.9-17.5,37.7-17.5c18.2,0,28.6,7,33.8,19c3.6-8.6,14.9-19,38.2-19
		c33.6,0,40.6,23.5,40.6,52.3v72.2h-25.9V349c0-17.3-3.1-29.3-22.8-29.3c-19.2,0-23.3,11.8-23.3,29.3v73.7h-25.9V349
		c0-17.3-3.1-29.3-22.8-29.3c-19.2,0-23.5,11.8-23.5,29.3v73.7h-25.7L1154.2,299.9L1154.2,299.9z"/>
	<path class="st0" d="M1335.2,299.9h13.9l5.8,15.8c3.8-7.9,14.9-17.5,37.7-17.5c18.2,0,28.6,7,33.8,19c3.6-8.6,14.9-19,38.2-19
		c33.6,0,40.6,23.5,40.6,52.3v72.2h-25.9V349c0-17.3-3.1-29.3-22.8-29.3c-19.2,0-23.3,11.8-23.3,29.3v73.7h-25.9V349
		c0-17.3-3.1-29.3-22.8-29.3c-19.2,0-23.5,11.8-23.5,29.3v73.7h-25.7L1335.2,299.9L1335.2,299.9z"/>
	<path class="st0" d="M1514.2,367.3v-67.4h25.2v69.4c0,22.1,4.1,33.6,30.5,33.6c25.9,0,31.4-12.5,31.4-34.8v-68.2h25.9v122.9H1613
		l-5.3-17.8c-4.6,8.9-17.5,19.4-45.1,19.4C1522.2,424.4,1514.2,402.1,1514.2,367.3z"/>
	<path class="st0" d="M1640,299.9h13.9l5.8,17.3c4.1-8.4,17-19,44.9-19c40.3,0,48.2,23.5,48.2,58.3v66.2h-25.4v-68.4
		c0-21.8-3.8-34.8-30-34.8s-31.7,12.7-31.7,34.8v68.4H1640V299.9z"/>
	<path class="st0" d="M1776.3,249.9c11,0,18.2,3.1,18.2,15.6c0,12.2-7.2,15.4-18.2,15.4c-11.5,0-19-3.1-19-15.4
		C1757.4,253.1,1764.8,249.9,1776.3,249.9z M1763.4,299.9h25.4v122.9h-25.4V299.9z"/>
	<path class="st0" d="M1796.5,361.3c0-32.6,13.2-63.1,60.7-63.1c37.4,0,55.2,19.9,55.2,50.6h-26.2c-1.7-19-9.4-29.8-29.8-29.8
		c-26.4,0-33.8,18.2-33.8,42c0,23.3,7.2,41.3,34.3,41.3c20.4,0,27.6-10.1,29.3-27.8h26.2c0,30.2-17,49.9-54.7,49.9
		C1809.2,424.4,1796.5,394,1796.5,361.3z"/>
	<path class="st0" d="M1915.5,386.8c0-22.6,16.1-32.6,51.1-36.2l38.6-3.8c-0.7-20.2-7.2-28.1-31.9-28.1c-22.8,0-29,9.1-29,24.5
		l-25,0.2c0-25.4,10.6-45.1,53.8-45.1c50.2,0,57.4,21.6,57.4,54.7v69.8h-13.9l-5.3-18.5c-5.8,9.6-22.8,20.2-48.2,20.2
		C1936.6,424.4,1915.5,412.7,1915.5,386.8z M1969.5,404.3c24.7,0,35.8-13,35.8-34.3v-3.8l-34.8,3.8c-21.4,2.4-28.6,7-28.6,16.6
		C1941.9,397.8,1951.5,404.3,1969.5,404.3z"/>
	<path class="st0" d="M2043.9,387.5v-67h-17.5v-15.4l17.5-5.3v-30.7h25v30.7h32.6v20.6h-31.9v67c0,11.5,5.3,16.8,31.9,15.6v20.6
		C2061,426.1,2043.9,416.5,2043.9,387.5z"/>
	<path class="st0" d="M2118.5,249.9c11,0,18.2,3.1,18.2,15.6c0,12.2-7.2,15.4-18.2,15.4c-11.5,0-19-3.1-19-15.4
		C2099.6,253.1,2107,249.9,2118.5,249.9z M2105.6,299.9h25.4v122.9h-25.4V299.9z"/>
	<path class="st0" d="M2138.7,361.3c0-32.4,12.7-63.1,61-63.1c47.8,0,61,30.7,61,63.1c0,32.9-13.2,63.1-61.2,63.1
		C2151.2,424.4,2138.7,394,2138.7,361.3z M2199.4,403.6c28.8,0,35-18.5,35-42.2c0-22.8-5.8-42.2-34.8-42.2
		c-28.6,0-34.8,19.2-34.8,42.2C2164.9,384.6,2171.1,403.6,2199.4,403.6z"/>
	<path class="st0" d="M2268.8,299.9h13.9l5.8,17.3c4.1-8.4,17-19,44.9-19c40.3,0,48.2,23.5,48.2,58.3v66.2h-25.4v-68.4
		c0-21.8-3.8-34.8-30-34.8s-31.7,12.7-31.7,34.8v68.4h-25.7V299.9z"/>
	<path class="st0" d="M2386.1,379.1h25.2c0,16.6,11.3,25,33.6,25c17.5,0,29.3-6,29.3-15.6c0-11.3-14.2-14.4-35.3-18.5
		c-26.4-5-50.4-11.3-50.4-34.3c0-24,17.8-37.4,53.8-37.4c35.5,0,54,15.1,54,43.9h-24c-1-16.8-10.3-24-30.7-24
		c-20.2,0-27.6,5.5-27.6,15.4c0,10.8,13.7,13.2,34.1,17.3c28.3,5.5,51.4,10.3,51.4,36.5c0,22.3-21.6,37.2-54,37.2
		C2405.6,424.4,2386.1,409.6,2386.1,379.1z"/>
</g>
</svg>
