<?xml version="1.0" encoding="utf-8"?>
<!-- Generator: Adobe Illustrator 25.4.1, SVG Export Plug-In . SVG Version: 6.00 Build 0)  -->
<svg version="1.1" id="图层_1" xmlns="http://www.w3.org/2000/svg" xmlns:xlink="http://www.w3.org/1999/xlink" x="0px" y="0px"
	 viewBox="0 0 2144.6 712.7" style="enable-background:new 0 0 2144.6 712.7;" xml:space="preserve">
<style type="text/css">
	.st0{fill:#FFFFFF;}
</style>
<path class="st0" d="M450.3,132.9c-36.7,4.2-69.8-22.2-74-58.9s22.2-69.8,59-74c36.6-4.1,69.8,22.3,73.9,59
	C513.4,95.7,487,128.8,450.3,132.9"/>
<path class="st0" d="M1272.8,196.9c-48.7-24.5-102.4-38-151-38c-114.5,0-197.5,83.1-197.5,197.5c0,90.3,51.3,181.4,166,181.4
	c30.1,0,56.9-6.3,80.8-19.4v16.5c0,43.9-10,84.5-82.3,84.5c-16.8,0-32.7-2.6-47-6.7c-18.1-5.4-35.1-14.1-52-22.6l-1.9-0.9
	c-4.2-1.8-8.7-1.6-12.9,0.1c-3.2,1.2-5.5,3.3-7.4,6c-2.4,3.2-26.2,40-27.8,43.3l-2.1,6.3l-0.3,2.5c0,5.1,2.2,9.7,5.7,13
	c7.5,7,16.9,12.4,25.9,17.3c2.7,1.4,5.4,2.7,8,4.1c27.8,13.7,68.6,27,122.9,27c58,0,103.8-16.4,136.2-48.8c40-40,40-80.2,40-131.1
	V198.4L1272.8,196.9L1272.8,196.9z M1171,434.7c-5.7,3.7-30,16.6-58,16.6c-41,0-82.3-30.9-82.3-99.9c0-62.3,36.9-105.9,89.6-105.9
	c23.5,0,43.9,7.2,50.7,9.9L1171,434.7L1171,434.7z M495.3,185.7l-0.3-2.3c-1.4-8-8.4-14.2-16.8-14.2h-72.3
	c-9.4,0-17.1,7.7-17.1,17.1v334.4c0,9.4,7.6,17.1,17.1,17.1h72.3c8.5,0,15.4-6.2,16.8-14.3l0.3-2.6V185.7 M2052.4,76.9
	c-0.5-9-7.9-16-16.9-16h-72.3c-9.3,0-16.7,7.4-16.9,16.7v444.5c0.7,8.8,8,15.8,16.9,15.8h72.3c9.1,0,16.6-7.3,16.9-16.4V76.9
	 M1740.1,158.9c-102.6,0-177,82.7-177,196.8c0,116.9,72,192.4,183.6,192.4c63,0,110.3-23,127.9-33c3.6-1.9,13.4-10.6,4.9-27.2
	l-17.6-34.4c-4.8-9.2-11.4-11.2-16-11.2c-2.3,0-4.6,0.5-8.2,1.9l-2.2,1c-27.8,12.4-54,18.4-80.1,18.4c-28.3,0-51.8-9-68-26.1
	c-14.3-15.1-20.7-34.4-21-48.2h239.5v-34.5C1906,232.2,1844,158.9,1740.1,158.9L1740.1,158.9z M1666.6,311
	c8.7-44.2,37.4-71.4,75.7-71.4c57,0,63.9,53.4,64.6,71.4H1666.6 M1536.4,465.6c-4.2-11.3-12.4-13-17-13l-7,1.2
	c-10.4,2.8-20,4.1-30.1,4.1c-38.7,0-42-27.5-42-58.1V258.7h93.4c9.4,0,17.1-7.6,17.1-17.1l0,0v-55.3c0-8.9-6.9-16.1-15.6-16.9
	l-1.2-0.1h-0.2l0,0h-93.4V77.9c0-9.4-7.6-17-17-17l0,0h-72.3c-2.6,0-5.3,0.6-7.6,1.8c-7.2,3-9.5,9.5-9.5,14.7v318.7
	c0,50.3,0,86.7,31.9,118.6c29,29.1,72.5,33.4,95.9,33.4c35.8,0,62.1-8.6,78.7-16.5c4.5-2.2,16.3-10.4,9.7-28.5L1536.4,465.6
	 M152.9,209.3c-6.2-2.9-12.9-6.5-18.7-11c-4.1-2.8-7.5-6.5-10.1-10.7l-2.2-4.2l-1-2.6c-1.3-3.8-2-7.8-2-11.8c0-6.8,2-13.2,5.2-18.6
	c6.6-11.7,18.9-20.4,31.7-24.2c38-12.4,79.3-0.8,112.8,18.5l6.3,3.3c3.8,2.3,7.8,3.7,11.2,3.7c5.6,0,10.6-2.5,14.2-6.3l-0.1,0.1
	c12.3-14.8,31.8-44.8,32.2-45.3c3.6-5.8,3.9-13.7,0.5-19.6l-3.4-4.6l-4.9-4c-52.3-36.3-119.5-48.7-181.8-38.5
	c-36.3,6.2-71.6,22.6-96.5,50C6,126.7-2.3,197.4,29.1,247.9c21.9,35.5,59.3,57.7,96.8,74c27.6,13,57.9,21.4,83.6,38.4
	c13.9,8.4,23.2,23.7,23.2,41.1c0,18.9-11.4,35.1-26.3,43c-8.1,4.3-16,7.6-24.9,9.4s-18.1,2.3-27.1,2c-5.1-0.2-10.2-0.6-15.3-1.2
	c-29.8-2.7-56.1-16.5-82.3-29.6l-2-1c-4.5-1.8-9.4-1.7-13.9,0.1c-3.5,1.4-5.9,3.7-8.1,6.6c-2.5,3.4-28.2,43.2-30,46.8l-2.6,6.8
	L0,487.1c0,5.6,2.4,10.5,6.1,14c26,21.9,59.3,34.2,92,42.2c54.3,11.6,113.6,10.6,163.8-14.8c84.1-38.6,112-163.7,48.2-232
	C267.8,252.1,207,234.7,152.9,209.3 M884.2,437.1V332.8c0.1-45.6,0.2-97.3-40-137.5c-23.7-23.7-57.1-36.3-96.6-36.3
	c-43.4,0-69.9,21.3-83.8,34.1v-6.6c-0.1-1.9-0.2-2.6-0.7-4.4l0,0l-0.1-0.4l-0.1-0.3l-0.3-1l-0.2-0.6l-4.4-6l-0.9-0.7l-0.2-0.1h-0.1
	l0,0c-2.9-2.1-6.2-3.4-10-3.4h-72.3c-9.4,0-17,7.6-17,17.1v334.4c0,9.4,7.6,17.1,17,17.1h72.3c8.5,0,15.4-6.2,16.8-14.2l0.3-2.6
	l-0.1-67.4h0.1V272c9.3-6.4,36-21,63.2-21c15.8,0,28.4,4.2,36.4,12.1c12.3,12.3,14.4,35,14.4,81.2v7.6v169.2
	c0,9.4,7.7,17.1,17.1,17.1h72.3c8.4,0,15.4-6.2,16.8-14.2l0.3-2.6v-67.3v-0.2L884.2,437.1L884.2,437.1"/>
</svg>
