<?xml version="1.0" encoding="utf-8"?>
<!-- Generator: Adobe Illustrator 25.4.1, SVG Export Plug-In . SVG Version: 6.00 Build 0)  -->
<svg version="1.1" id="图层_1" xmlns="http://www.w3.org/2000/svg" xmlns:xlink="http://www.w3.org/1999/xlink" x="0px" y="0px"
	 viewBox="0 0 2500 686" style="enable-background:new 0 0 2500 686;" xml:space="preserve">
<style type="text/css">
	.st0{fill-rule:evenodd;clip-rule:evenodd;fill:#FFFFFF;}
</style>
<path class="st0" d="M1130.4,181H856.3v43.5H966v322.2h56.4V224.5h109.7V181L1130.4,181L1130.4,181z M1382.7,181h-49v365.8h50.7V181
	H1382.7z M1669.3,422.1c0,107.6,45,129.6,112.6,129.6c21.1,0,50.8-7.3,71-27.9c15.5-16,23-37.2,22.3-63.2l0-1.7h-53.1l0.1,1.8
	c0.6,17.5-3.8,31.4-13.1,41.2c-9.7,10-22.1,12.7-27.2,12.7c-46.3,0-59.5-24.6-59.5-110.2c0-34.1,6.1-56.7,18.6-69.2
	c9.1-9.1,20.1-13.4,39-13.4c6,0,19.5,1.4,28.5,10.6c8.5,8.9,12.6,22.3,12.1,40.3l0,1.7h52.5l0-1.6c1.3-26.7-5.2-47.9-19.6-63.1
	c-15.5-16.4-40.3-25-71.4-25C1677.9,284.9,1669.3,349.8,1669.3,422.1L1669.3,422.1z M2349.4,316.1c-12.7-22.9-44.2-31.2-68.2-31.2
	c-35.7,0-58.7,10.9-72.1,34v-29h-50.8v256.9h50.8V374.4c0-4.8,0-23.7,10.7-36.1c8.7-10.2,25-16.4,39.5-16.4
	c30.3,0,44.4,15.1,44.4,47.6v177.3h50.8V374.3c0-11.9,1.4-32.3,15.4-43.2c10.5-8.3,17.5-9.2,34.8-9.2c30.3,0,44.4,15.1,44.4,47.6
	v177.3h50.8V352.3c0-45.4-26.6-67.4-81.3-67.4C2395.6,284.9,2367.3,288.7,2349.4,316.1L2349.4,316.1z M659.3,315.4L777.1,96.4H631.3
	l-87.8,177.2V96.4H410.9v450.8h131.4V352.7l112,193.9h152.6L659.3,315.4L659.3,315.4z M156.3,376.7l47.5-0.1
	c20.4,0,31.9,10.9,31.8,25.8c-0.2,14.7-12.2,24.4-32.6,23.3H8.4l-0.8,0.9l0,120.6H211c38.4,0.2,53.9-4,53.9-4
	c75.3-18,121.8-93.7,103.8-169c-10.5-43.8-41.3-79.9-82.9-97c-23.8-10.3-64.9-10.7-64.9-10.7l-56.1-0.1l-0.2,0.1
	c-20.2,0-31.9-10.9-31.7-25.7c0.1-14.7,12.3-24.4,32.6-24.2l0.5-0.1l180.6,0.1l0-120.6H159.7c-54.7-0.2-72.8,9.1-72.8,9.1
	c-54.7,20.5-91,72.9-91,131.3c0,59.1,32.9,112,88.2,130.3c0,0,25.1,10.7,61.5,9.8L156.3,376.7L156.3,376.7z"/>
<path class="st0" d="M1293.6,410c0-79.3-17.3-125.1-105.7-125.1c-38.4,0-65.8,8.6-83.7,26.7c-26.6,26.6-28.8,70.9-28.8,110.6
	c0,107.6,45,129.6,112.5,129.6c66,0,102.7-29.6,103.3-83.5v-1.7H1236l-0.1,1.6c-1.5,21.5-15.2,46.6-49.1,46.6
	c-35.9,0-56.8-13.4-57.2-81.3h163.9L1293.6,410L1293.6,410L1293.6,410z M1129.7,398.8c1-69.5,26.4-79.4,53.6-79.4
	c31.8,0,56.1,6,56.5,79.4H1129.7L1129.7,398.8z M1638.6,410c0-79.3-17.3-125.1-105.6-125.1c-103.8,0-112.4,64.9-112.4,137.2
	c0,107.6,44.8,129.6,112.4,129.6c66.1,0,102.8-29.6,103.3-83.5v-1.7H1581l-0.1,1.6c-1.4,21.5-15.1,46.6-49.1,46.6
	c-35.9,0-56.8-13.4-57.2-81.3h163.9L1638.6,410L1638.6,410L1638.6,410z M1474.8,398.8c1-69.5,26.3-79.4,53.6-79.4
	c31.8,0,56.2,6,56.6,79.4H1474.8z M2011.7,284.9c-103.9,0-112.6,64.9-112.6,137.2c0,107.6,45,129.6,112.6,129.6
	c28.3,0,60.4-3,82.3-25.1c20.3-20.3,30.1-54.4,30.1-104.6C2124.2,349.8,2115.5,284.9,2011.7,284.9L2011.7,284.9z M2051,501.9
	c-8.7,8.8-21.2,12.8-39.3,12.8c-46.2,0-59.6-24.6-59.6-110.2c0-34.1,6.1-56.7,18.6-69.2c9.1-9.1,22.2-13.4,40.9-13.4
	c35.7,0,59.4,14.1,59.4,82.6C2071.2,460.1,2065.5,487.3,2051,501.9L2051,501.9z"/>
</svg>
